<?xml version="1.0" standalone="no"?><!DOCTYPE svg PUBLIC "-//W3C//DTD SVG 1.1//EN" "http://www.w3.org/Graphics/SVG/1.1/DTD/svg11.dtd"><svg t="1662107296659" class="icon" viewBox="0 0 1024 1024" version="1.1" xmlns="http://www.w3.org/2000/svg" p-id="1188" xmlns:xlink="http://www.w3.org/1999/xlink" width="200" height="200"><path d="M430 854.3c-68.2-16.4-86.3-114.2-145.6-149.9-27.8-16.7-62-20.1-89.6-36.2-63.3-37-58.8-118.6-14.4-167.9 32.1-35.6-20.6-88.6-52.8-52.8-68.1 75.7-82.4 203.8 7.5 271.2 18.3 13.7 39.6 21.7 60.9 29.6 46 17 72.8 38.5 99.1 79.2 30 46.4 58.9 85.3 115.1 98.8 46.6 11.2 66.6-60.8 19.8-72z" fill="#A091A1" p-id="1189"></path><path d="M419.9 931.5c-3.5 0-7-0.4-10.6-1.3-57.5-13.8-87.3-53.7-117.5-100.5-25.8-40-52.1-61-97.1-77.6-21.1-7.8-42.9-15.9-61.9-30.2-37.1-27.8-59.2-67.4-63.8-114.4-2.7-28 1-57.9 10.9-86.4 9.7-28.2 25.2-54.6 44.8-76.3 9.7-10.8 22.2-15.2 35.1-12.5 14.7 3.1 27.8 15.3 32.7 30.4 4.7 14.4 1.5 28.6-9 40.2-24.3 27-36.2 64.2-31 97.2 4.3 27.7 19.7 50 44.5 64.5 13.2 7.7 27.7 12.3 43.1 17.3 15.7 5 32 10.2 46.5 19 27 16.3 45.6 44.9 63.7 72.6 22.8 35 44.3 68.1 80.8 76.9 14.3 3.4 24.3 12.4 28.1 25.4 4.3 14.6-0.1 32-10.9 43.4-7.8 8.1-17.6 12.3-28.4 12.3zM152.2 439.6c-6.4 0-14.2 2.3-21.6 10.6-18.8 20.9-33.8 46.4-43.1 73.5-9.5 27.5-13.1 56.2-10.5 83 4.4 44.7 25.3 82.3 60.6 108.7 18.1 13.5 39.3 21.4 59.9 29 46.8 17.3 74.2 39.2 101.1 80.8 29.3 45.3 58 83.9 112.7 97.1 12 2.9 23.1-0.2 31.2-8.7 8.9-9.4 12.5-23.7 9-35.6-2.1-7.1-7.7-16.4-22.3-19.9-39.6-9.5-63-45.5-85.7-80.3-17.5-26.9-35.6-54.8-61.1-70.1-13.7-8.3-29.6-13.3-44.8-18.2-15.1-4.8-30.8-9.8-44.7-18-27-15.8-43.7-40-48.4-70.2-5.5-35.3 7.2-75.1 33-103.8 8.4-9.4 11-20.8 7.3-32.3-4-12.4-14.8-22.5-26.7-25-1.8-0.3-3.8-0.6-5.9-0.6z" fill="#51509F" p-id="1190"></path><path d="M471.1 682s-80.8 204.1-55 290.6l334 1.4s3.5-217.8-62.7-307.6L471.1 682z" fill="#A091A1" p-id="1191"></path><path d="M750.1 978l-334-1.4c-1.7 0-3.3-1.2-3.8-2.8-10.9-36.6-4.9-97.1 17.8-179.9 16.8-61.3 37.1-112.8 37.3-113.3 0.6-1.4 1.9-2.4 3.4-2.5l216.3-15.6c1.3-0.1 2.7 0.5 3.5 1.6 27.9 37.8 47 101.5 56.9 189.4 7.3 65.2 6.6 120.1 6.5 120.6 0 2.1-1.7 3.9-3.9 3.9z m-331-9.4l327 1.4c0-13.6-0.4-61.1-6.5-115.8-9.5-83.8-28.2-147.3-54.1-183.7l-211.6 15.3c-8.7 22.5-76.1 202.1-54.8 282.8z" fill="#51509F" p-id="1192"></path><path d="M617.9 192.3s-33 0.3-58.9 2.6c0 0-79.9-166.6-171.4-155.1 0 0-118 34.8-109.2 301.7 0 0-51.1 59.7-56.4 97.9 0 0-7.1 28.9 18.6 53.3 0 0-26 53.9 31.3 71.6 0 0-2.2 60.1 56.3 70.9 16.3 10.7 34.8 21.1 55.5 30.6 83.5 38.1 162.9 41.1 215.2 37.7 33.1-1.6 72.2-6 115.3-16.1 61.1-14.3 111-35.5 148.5-54.9 0 0 8.6-16.1 11.8-33.1 0 0 42.2-16 52.8-56.4 0 0 4.6-25-11.4-33.1 0 0 32.1-50.9 24.7-83.3 0 0 2.4-29.5-42.2-79.1 0 0-31.1-217.6-103.4-284.8-72.3-67.1-147.3 58.6-147.3 58.6s-33.1 46.7-29.8 71z" fill="#A091A1" p-id="1193"></path><path d="M566.4 708.6c-65.5 0-127.4-13.1-184.4-39.1-19.5-9-38.2-19.2-55.4-30.5-31.4-6.1-45.8-26-52.3-41.8-5.3-12.7-6.3-24.6-6.5-30-16.5-5.7-27.7-15-33.3-27.8-8.1-18.6-1.6-38.6 1.2-45.8-23.9-24.4-18.4-52-17.8-55 5.2-36.3 48.8-89.7 56.3-98.6-1.9-60.6 2.7-114.2 13.5-159.3 8.8-36.6 21.8-67.7 38.5-92.5 28.9-42.8 58.8-52 60.1-52.4 0.2-0.1 0.4-0.1 0.6-0.1 21.9-2.8 44.8 4 68.2 20.1 18.4 12.6 37 31 55.5 54.7 26.9 34.5 45.7 70.4 50.6 80.1 19.8-1.6 42.9-2.2 52.3-2.3 0.4-25.7 28.5-66.1 30.7-69.2 2.7-4.5 44.1-72 96.2-79.5 20.4-2.9 39.7 3.8 57.2 20.1 30.6 28.4 57.5 85.4 80 169.5 15.3 57.2 23.2 108 24.5 116.5 41.3 46.3 42.5 75.6 42.4 80.5 6.2 29-16.1 70.2-23.3 82.4 14.1 10.8 10.1 34.1 9.9 35.1 0 0.1 0 0.2-0.1 0.3-9.7 37.1-44.2 54.4-53.2 58.3-3.5 16.6-11.4 31.4-11.8 32.1-0.4 0.7-1 1.3-1.7 1.7-47.5 24.6-97.8 43.1-149.4 55.2-37.8 8.9-76.8 14.3-116 16.2-10.8 0.7-21.7 1.1-32.5 1.1z m-178-664.8c-10.1 3.2-34.3 17.5-55.9 49.8-16.1 24.1-28.6 54.3-37.1 89.9-10.7 44.6-15.1 97.8-13.1 158 0 1-0.3 2-1 2.8-0.5 0.6-50.4 59.2-55.5 95.8 0 0.1 0 0.3-0.1 0.4-0.3 1.1-6.1 27 17.5 49.4 1.3 1.2 1.6 3.1 0.9 4.7-0.1 0.2-10.6 22.6-2.2 41.8 4.9 11.2 15.3 19.3 31.1 24.2 1.7 0.5 2.9 2.2 2.8 4 0 0.1-0.4 14.6 6 30 8.4 20.2 24.3 32.6 47 36.8 0.5 0.1 1 0.3 1.5 0.6 17.1 11.2 35.6 21.4 55 30.3 65.2 29.7 136.9 42.3 213.3 37.3 38.8-1.9 77.3-7.3 114.6-16 50.6-11.8 99.9-30 146.4-54 1.9-3.8 8.3-17.2 10.8-30.9 0.3-1.4 1.2-2.5 2.5-3 0.4-0.2 40.3-15.8 50.3-53.5 0.3-1.8 3.3-22.3-9.3-28.6-1-0.5-1.8-1.4-2.1-2.5s-0.1-2.3 0.5-3.2c0.3-0.5 31.1-49.9 24.2-80.3-0.1-0.4-0.1-0.8-0.1-1.2 0 0 0.4-7.1-4.4-20-4.5-11.9-14.5-31.3-36.8-56.1-0.5-0.6-0.9-1.3-1-2.1-0.1-0.5-7.9-55-24.5-116.8-21.8-81.4-48.6-138.7-77.6-165.6-15.7-14.5-32.7-20.6-50.6-18.1-48.9 7-90.1 75.1-90.5 75.8-0.1 0.1-0.1 0.2-0.2 0.3-9 12.6-31.6 49.5-29.1 68.1 0.2 1.1-0.2 2.3-0.9 3.2s-1.9 1.4-3 1.4c-0.3 0-33.1 0.3-58.6 2.6-1.7 0.2-3.3-0.8-4-2.3-0.2-0.4-20.2-41.8-51-81.2-27.8-35.9-70.5-77.3-115.8-71.8z" fill="#51509F" p-id="1194"></path><path d="M431 444.7c-1.6 0-3.1-0.8-4-2.3-8.1-13.4-10.7-35.9-10.8-36.8-0.3-2.6 1.6-4.9 4.1-5.2 2.6-0.3 4.9 1.6 5.2 4.1 0 0.2 2.5 21.3 9.6 33 1.3 2.2 0.6 5.1-1.6 6.4-0.8 0.6-1.7 0.8-2.5 0.8zM451.9 450.9c-1.6 0-3.1-0.8-4-2.3-8.1-13.4-10.7-35.9-10.8-36.8-0.3-2.6 1.6-4.9 4.1-5.2 2.6-0.3 4.9 1.6 5.2 4.1 0 0.2 2.5 21.3 9.6 33 1.3 2.2 0.6 5.1-1.6 6.4-0.8 0.6-1.7 0.8-2.5 0.8zM727.3 436.7c-1.1 0-2.2-0.4-3.1-1.2-1.9-1.7-2.1-4.7-0.4-6.6 9-10.2 15.1-30.6 15.1-30.8 0.7-2.5 3.3-3.9 5.8-3.2 2.5 0.7 3.9 3.3 3.2 5.8-0.3 0.9-6.7 22.6-17.1 34.4-0.9 1-2.2 1.6-3.5 1.6zM705.7 439.2c-1.1 0-2.2-0.4-3.1-1.2-1.9-1.7-2.1-4.7-0.4-6.6 9-10.2 15.1-30.6 15.1-30.8 0.7-2.5 3.3-3.9 5.8-3.2 2.5 0.7 3.9 3.3 3.2 5.8-0.3 0.9-6.7 22.6-17.1 34.4-0.9 1-2.2 1.6-3.5 1.6z" fill="#533C8C" p-id="1195"></path><path d="M702.9 534.4a55.6 32.9 0 1 0 111.2 0 55.6 32.9 0 1 0-111.2 0Z" fill="#CF8CB4" p-id="1196"></path><path d="M329.5 534.4a55.6 32.9 0 1 0 111.2 0 55.6 32.9 0 1 0-111.2 0Z" fill="#CF8CB4" p-id="1197"></path><path d="M536.4 589.8h-1.6c-2.5-0.1-4.5-2.1-4.5-4.7 0.1-2.5 2.1-4.6 4.7-4.5 13.7 0.3 24.2-3.5 31.1-11.2 13-14.5 10.1-38.4 10.1-38.6-0.3-2.4 1.3-4.7 3.7-5.1 2.4-0.4 4.7 1.1 5.2 3.5 0 0.1 2.9 13 10.8 25 10.1 15.4 23.4 22.4 39.6 20.7 2.5-0.3 4.7 1.6 5 4.1 0.3 2.5-1.6 4.7-4.1 5-19.6 2-36.3-6.6-48.3-25-1.5-2.3-2.9-4.7-4.1-7-1.6 7.8-4.9 16.4-11.2 23.5-8.4 9.5-20.7 14.3-36.4 14.3z" fill="#533C8C" p-id="1198"></path><path d="M438.057333 537.635819a37.101113 55.301659 5.015 1 0 9.66856-110.179912 37.101113 55.301659 5.015 1 0-9.66856 110.179912Z" fill="#533C8C" p-id="1199"></path><path d="M703.372959 526.994508a37.101113 55.301659 5.015 1 0 9.668559-110.179911 37.101113 55.301659 5.015 1 0-9.668559 110.179911Z" fill="#533C8C" p-id="1200"></path><path d="M457.6 213.3c8.5 35.1-9.3 72.9-43.6 84.5-14.7 5-32.7 5.5-54-3.1-70.9-28.7-18.5-173.6 47.6-218.5 11.9 21.6 24.7 49.2 35 82.2 4.6 15 10.4 35.9 15 54.9z" fill="#795A9B" p-id="1201"></path><path d="M392.1 305.3c-10.8 0-22-2.3-33.5-7-20.6-8.3-32.9-26.5-35.7-52.6-6-55.9 34.2-139.9 82.6-172.7 0.9-0.6 2-0.8 3.1-0.6 1.1 0.3 2 0.9 2.5 1.9 14.4 26.2 26.3 54.1 35.3 82.9 5 16.4 10.8 37.5 15.1 55.1 9.2 38.1-11 77.2-46.1 89.1-7.6 2.6-15.4 3.9-23.3 3.9z m14.2-223.4c-20.7 15.3-40.7 41.2-55.4 71.7-15.6 32.5-23 65.7-20.3 91.3 2.5 23.4 12.9 38.9 30.9 46.2 18.3 7.4 35.5 8.4 51.3 3 31.3-10.6 49.4-45.7 41.1-79.9-4.2-17.5-10-38.4-14.9-54.7-8.5-26.9-19.5-53-32.7-77.6z" fill="#4E4C93" p-id="1202"></path><path d="M702.2 198.2c-11.9 34.1 2 73.5 34.9 88.4 14.2 6.4 32 8.8 54 2.3 73.4-21.5 35.8-170.9-25.5-222.2-14 20.3-29.5 46.4-43 78.3-6.2 14.4-14 34.6-20.4 53.2z" fill="#795A9B" p-id="1203"></path><path d="M766 296.6c-10.7 0-20.9-2.2-30.5-6.5-33.7-15.2-49.9-56.2-37-93.2 6.2-17.9 14-38.4 20.5-53.5 11.7-27.6 26.3-54.2 43.4-79 0.6-0.9 1.6-1.5 2.7-1.6 1.1-0.1 2.2 0.2 3 0.9 44.8 37.5 76.4 125.1 64.9 180.1-5.4 25.7-19.5 42.6-40.8 48.8-9 2.7-17.8 4-26.2 4z m0.3-224.1c-15.7 23.3-29.2 48.2-40.2 74-6.4 14.9-14.2 35.2-20.3 53-11.6 33.3 2.8 70 32.8 83.6 15.4 6.9 32.6 7.6 51.3 2.1 18.7-5.5 30.6-19.9 35.4-42.9 5.3-25.1 1.2-59-11.1-92.8-11.5-32-28.8-59.7-47.9-77z m-64.1 125.7z" fill="#4E4C93" p-id="1204"></path><path d="M619.3 894.6l-66.3 0.1c-12.6 0-22.9-10.2-22.9-22.9l-0.1-122c0-12.6 10.2-22.9 22.9-22.9l66.3-0.1c12.6 0 22.9 10.2 22.9 22.9l0.1 122c-0.1 12.6-10.3 22.9-22.9 22.9z" fill="#D55542" p-id="1205"></path><path d="M553 897.3c-14.1 0-25.5-11.5-25.5-25.5l-0.1-122c0-14.1 11.5-25.5 25.5-25.5l66.3-0.1c14.1 0 25.5 11.5 25.5 25.5l0.1 122c-0.1 14.1-11.6 25.5-25.5 25.5l-66.3 0.1z m66.2-167.9l-66.3 0.1c-11.2 0-20.3 9.1-20.3 20.3l0.1 122c0 11.2 9.1 20.3 20.3 20.3l66.3-0.1c11.1 0 20.2-9.1 20.3-20.3l-0.1-122c0-11.2-9.1-20.3-20.3-20.3z" fill="#9E4356" p-id="1206"></path><path d="M532.6 766l56.8 32.4 50.1-35.3" fill="#D55542" p-id="1207"></path><path d="M589.4 801c-0.5 0-0.9-0.1-1.3-0.3l-56.8-32.4c-1.3-0.7-1.7-2.3-1-3.6 0.7-1.3 2.3-1.7 3.6-1l55.3 31.6 48.7-34.3c1.2-0.8 2.8-0.6 3.7 0.6 0.8 1.2 0.6 2.8-0.6 3.7l-50.1 35.3c-0.4 0.3-1 0.4-1.5 0.4z" fill="#9E4356" p-id="1208"></path><path d="M586.1 798.4m-24.2 0a24.2 24.2 0 1 0 48.4 0 24.2 24.2 0 1 0-48.4 0Z" fill="#F5D184" p-id="1209"></path><path d="M586.1 825c-14.7 0-26.6-11.9-26.6-26.6 0-14.7 11.9-26.6 26.6-26.6 14.7 0 26.6 11.9 26.6 26.6 0 14.7-11.9 26.6-26.6 26.6z m0-48.4c-12 0-21.8 9.8-21.8 21.8s9.8 21.8 21.8 21.8 21.8-9.8 21.8-21.8-9.8-21.8-21.8-21.8z" fill="#A97234" p-id="1210"></path><path d="M658.7 847.7s-69.7-68.2-24.5-91.6c45.2-23.5 96.2 32.2 96.2 32.2" fill="#A091A1" p-id="1211"></path><path d="M658.7 851.5c-1 0-1.9-0.4-2.7-1.1-1.8-1.8-45.2-44.6-40.5-75.6 1.4-9.6 7.1-17 17-22.1 19.7-10.3 43.5-7.7 68.8 7.4 18.7 11.1 31.5 25 32 25.6 1.4 1.6 1.3 4-0.2 5.4s-4 1.3-5.4-0.2c-0.5-0.5-49.6-53.3-91.6-31.4-7.6 3.9-11.8 9.3-12.9 16.5-1.6 11 4.4 26.4 17.4 44.4 10.1 14 20.8 24.5 20.9 24.6 1.5 1.5 1.5 3.9 0.1 5.4-0.9 0.7-1.9 1.1-2.9 1.1z" fill="#51509F" p-id="1212"></path><path d="M514 847.7s69.7-68.2 24.5-91.6c-45.2-23.5-96.2 32.2-96.2 32.2" fill="#A091A1" p-id="1213"></path><path d="M514 851.5c-1 0-2-0.4-2.7-1.2-1.5-1.5-1.5-3.9 0.1-5.4 0.1-0.1 10.9-10.7 21-24.7 13-18 19-33.3 17.3-44.3-1.1-7.1-5.3-12.5-12.9-16.4-42.1-21.9-91.1 30.9-91.6 31.4-1.4 1.6-3.9 1.7-5.4 0.2-1.6-1.4-1.7-3.9-0.2-5.4 0.5-0.6 13.3-14.5 32-25.6 25.3-15.1 49.1-17.7 68.8-7.4 9.8 5.1 15.5 12.5 17 22.1 4.6 31-38.7 73.8-40.5 75.6-1 0.8-1.9 1.1-2.9 1.1z" fill="#51509F" p-id="1214"></path></svg>