<?xml version="1.0" standalone="no"?><!DOCTYPE svg PUBLIC "-//W3C//DTD SVG 1.1//EN" "http://www.w3.org/Graphics/SVG/1.1/DTD/svg11.dtd"><svg t="1662124546289" class="icon" viewBox="0 0 1024 1024" version="1.1" xmlns="http://www.w3.org/2000/svg" p-id="22265" xmlns:xlink="http://www.w3.org/1999/xlink" width="200" height="200"><path d="M851.6608 939.9296a212.86912 212.86912 0 0 1-69.50912 14.78656 211.31264 211.31264 0 0 1-113.90976-28.16c-48.80384-1.9456-101.376-2.99008-156.28288-2.99008-254.07488 0-460.06272 22.48704-460.06272 50.19648C51.93728 1001.51296 257.92512 1024 512 1024c254.09536 0 460.06272-22.48704 460.06272-50.23744 0-13.04576-45.62944-24.92416-120.40192-33.83296z" fill="#B7CED2" p-id="22266"></path><path d="M565.84192 759.1936c-4.56704-112.35328 84.91008-207.11424 199.84384-211.5584a210.65728 210.65728 0 0 1 112.37376 27.32032V245.12512c0-34.44736-28.2624-62.40256-63.09888-62.40256H162.11968c-34.83648 0-63.09888 27.9552-63.09888 62.40256v632.07424c0 34.44736 28.2624 62.3616 63.09888 62.3616h533.07392c-73.1136-29.2864-126.01344-98.03776-129.35168-180.36736z" fill="#A2E7F6" p-id="22267"></path><path d="M773.79584 965.07904c-117.67808 0-213.52448-90.25536-218.19392-205.45536-2.27328-56.23808 17.69472-110.20288 56.27904-151.94112 39.7312-43.04896 94.22848-67.97312 153.3952-70.28736 121.71264-3.87072 222.12608 87.20384 226.9184 205.25056a210.1248 210.1248 0 0 1-56.25856 151.9616c-39.71072 43.02848-94.208 67.97312-153.37472 70.30784-2.94912 0.1024-5.85728 0.16384-8.76544 0.16384z m0.32768-407.36768c-2.6624 0-5.36576 0.04096-8.04864 0.16384-53.71904 2.06848-103.13728 24.6784-139.1616 63.67232-34.85696 37.74464-52.89984 86.46656-50.83136 137.216 4.32128 106.78272 95.6416 190.73024 205.68064 185.6512 53.71904-2.08896 103.1168-24.71936 139.14112-63.71328 34.83648-37.72416 52.87936-86.46656 50.81088-137.216-4.21888-104.16128-91.01312-185.77408-197.59104-185.77408z" fill="#107792" p-id="22268"></path><path d="M837.59104 899.72736a10.24 10.24 0 0 1-6.12352-18.432l37.4784-28.11904H660.15232a10.24 10.24 0 0 1 0-20.48h239.47264c4.4032 0 8.31488 2.82624 9.728 7.00416a10.28096 10.28096 0 0 1-3.584 11.44832l-62.03392 46.55104a10.36288 10.36288 0 0 1-6.144 2.02752zM717.08672 799.76448l-98.4064-0.04096a10.26048 10.26048 0 0 1-6.5536-18.1248l66.84672-55.3984a10.24 10.24 0 1 1 13.08672 15.74912l-44.99456 37.29408 70.02112 0.02048a10.24 10.24 0 0 1 0 20.50048z" fill="#107792" p-id="22269"></path><path d="M782.39744 787.39456c0 5.67296-7.43424 10.24-16.62976 10.24-9.19552 0-16.62976-4.56704-16.62976-10.24v-92.672c0-5.632 7.43424-10.19904 16.62976-10.19904 9.19552 0 16.62976 4.56704 16.62976 10.19904v92.672z" fill="#A2E7F6" p-id="22270"></path><path d="M765.76768 807.87456c-15.31904 0-26.86976-8.8064-26.86976-20.48v-92.672c0-11.65312 11.55072-20.43904 26.86976-20.43904s26.86976 8.78592 26.86976 20.43904v92.672c0 11.69408-11.55072 20.48-26.86976 20.48z m-5.632-21.05344c1.024 0 2.99008 0.57344 5.61152 0.57344 3.93216 0 6.41024-1.29024 6.9632-1.88416l-0.55296-90.76736c0 1.26976-2.51904 0-6.38976 0-3.93216 0-6.43072 1.29024-6.9632 1.88416l0.55296 90.74688c0-0.4096 0.28672-0.55296 0.77824-0.55296z" fill="#107792" p-id="22271"></path><path d="M923.52512 787.39456c0 5.67296-7.4752 10.24-16.67072 10.24-9.17504 0-16.62976-4.56704-16.62976-10.24v-92.672c0-5.632 7.45472-10.19904 16.62976-10.19904 9.19552 0 16.67072 4.56704 16.67072 10.19904v92.672z" fill="#A2E7F6" p-id="22272"></path><path d="M906.83392 807.87456c-15.31904 0-26.86976-8.8064-26.86976-20.48v-92.672c0-11.65312 11.55072-20.43904 26.86976-20.43904 15.33952 0 26.91072 8.78592 26.91072 20.43904v92.672c0.02048 11.69408-11.5712 20.48-26.91072 20.48z m-5.61152-21.05344c1.024 0 2.99008 0.57344 5.61152 0.57344 3.95264 0 6.4512-1.29024 7.00416-1.90464l-0.55296-90.74688c0 1.26976-2.51904 0-6.43072 0-3.93216 0-6.43072 1.29024-6.9632 1.90464l0.55296 90.7264c0-0.4096 0.26624-0.55296 0.77824-0.55296z" fill="#107792" p-id="22273"></path><path d="M852.95104 781.27104c0 9.0112-7.4752 16.36352-16.65024 16.36352a16.4864 16.4864 0 0 1-16.65024-16.36352v-148.39808c0-9.03168 7.43424-16.36352 16.65024-16.36352 9.17504 0 16.65024 7.29088 16.65024 16.36352v148.39808z" fill="#A2E7F6" p-id="22274"></path><path d="M836.3008 807.87456a26.76736 26.76736 0 0 1-26.89024-26.60352v-148.39808c0-14.66368 12.06272-26.60352 26.89024-26.60352s26.89024 11.93984 26.89024 26.60352v148.39808c0 14.66368-12.04224 26.60352-26.89024 26.60352z m0-181.10464a6.26688 6.26688 0 0 0-6.41024 6.12352v148.39808c0 3.3792 2.88768 6.12352 6.41024 6.12352s6.41024-2.74432 6.41024-6.12352v-148.39808a6.26688 6.26688 0 0 0-6.41024-6.12352z" fill="#107792" p-id="22275"></path><path d="M134.32832 240.35328c0-24.59648 19.94752-44.52352 44.50304-44.52352h620.9536c24.55552 0 44.46208 19.92704 44.46208 44.52352v258.9696c11.59168 2.60096 22.8352 6.0416 33.81248 10.11712V229.64224a67.584 67.584 0 0 0-67.62496-67.60448H168.1408a67.60448 67.60448 0 0 0-67.62496 67.60448v236.6464h33.792l0.02048-225.93536z" fill="#107792" p-id="22276"></path><path d="M564.8384 905.76896H178.81088a44.52352 44.52352 0 0 1-44.50304-44.48256v-259.6864h118.31296c4.52608 0 8.8064-1.76128 11.96032-4.9152l49.95072-49.95072 91.56608 213.62688a16.9984 16.9984 0 0 0 15.5648 10.24h0.69632a16.85504 16.85504 0 0 0 15.33952-11.53024l117.94432-353.71008 46.1824 161.62816c8.9088-8.56064 18.39104-16.42496 28.42624-23.63392l-57.07776-199.76192a16.87552 16.87552 0 0 0-15.872-12.24704 17.65376 17.65376 0 0 0-16.42496 11.55072l-121.15968 363.33568-83.8656-195.76832a16.896 16.896 0 0 0-27.52512-5.2224l-62.6688 62.62784h-128.2048a16.896 16.896 0 0 0-16.91648 16.896l0.04096 0.75776h-0.06144v286.47424a67.62496 67.62496 0 0 0 67.62496 67.60448h423.81312a269.9264 269.9264 0 0 1-27.11552-33.83296z" fill="#107792" p-id="22277"></path><path d="M773.79584 965.07904c-117.67808 0-213.52448-90.25536-218.19392-205.45536-2.27328-56.23808 17.69472-110.20288 56.27904-151.94112 39.7312-43.04896 94.22848-67.97312 153.3952-70.28736 121.71264-3.87072 222.12608 87.20384 226.9184 205.25056a210.1248 210.1248 0 0 1-56.25856 151.9616c-39.71072 43.02848-94.208 67.97312-153.37472 70.30784-2.94912 0.1024-5.85728 0.16384-8.76544 0.16384z m0.32768-407.36768c-2.6624 0-5.36576 0.04096-8.04864 0.16384-53.71904 2.06848-103.13728 24.6784-139.1616 63.67232-34.85696 37.74464-52.89984 86.46656-50.83136 137.216 4.32128 106.78272 95.6416 190.73024 205.68064 185.6512 53.71904-2.08896 103.1168-24.71936 139.14112-63.71328 34.83648-37.72416 52.87936-86.46656 50.81088-137.216-4.21888-104.16128-91.01312-185.77408-197.59104-185.77408z" fill="#107792" p-id="22278"></path></svg>