<?xml version="1.0" standalone="no"?><!DOCTYPE svg PUBLIC "-//W3C//DTD SVG 1.1//EN" "http://www.w3.org/Graphics/SVG/1.1/DTD/svg11.dtd"><svg t="1662051269040" class="icon" viewBox="0 0 1024 1024" version="1.1" xmlns="http://www.w3.org/2000/svg" p-id="1120" xmlns:xlink="http://www.w3.org/1999/xlink" width="200" height="200"><path d="M519.3728 512.4096m-450.816 0a450.816 450.816 0 1 0 901.632 0 450.816 450.816 0 1 0-901.632 0Z" fill="#8486F8" p-id="1121"></path><path d="M748.3392 771.6864h-425.472c-40.6528 0-73.728-33.0752-73.728-73.728V273.3568c0-13.4656 10.9056-24.3712 24.3712-24.3712s24.3712 10.9056 24.3712 24.3712v424.5504c0 13.7728 11.2128 24.9856 24.9856 24.9856h425.472c13.4656 0 24.3712 10.9056 24.3712 24.3712a24.3712 24.3712 0 0 1-24.3712 24.4224z" fill="#FFFFFF" p-id="1122"></path><path d="M433.7664 693.2992H356.7616a16.6912 16.6912 0 0 1-16.6912-16.6912V483.0208c0-9.216 7.4752-16.6912 16.6912-16.6912h77.056c9.216 0 16.6912 7.4752 16.6912 16.6912v193.5872a16.77312 16.77312 0 0 1-16.7424 16.6912zM588.1856 693.2992H511.1296a16.6912 16.6912 0 0 1-16.6912-16.6912V276.1216c0-9.216 7.4752-16.6912 16.6912-16.6912h77.056c9.216 0 16.6912 7.4752 16.6912 16.6912v400.4864a16.72704 16.72704 0 0 1-16.6912 16.6912zM742.5536 693.2992h-77.056a16.6912 16.6912 0 0 1-16.6912-16.6912V330.4448c0-9.216 7.4752-16.6912 16.6912-16.6912h77.056c9.216 0 16.6912 7.4752 16.6912 16.6912v346.1632c0 9.216-7.4752 16.6912-16.6912 16.6912z" fill="#FFFFFF" p-id="1123"></path></svg>