<?xml version="1.0" standalone="no"?><!DOCTYPE svg PUBLIC "-//W3C//DTD SVG 1.1//EN" "http://www.w3.org/Graphics/SVG/1.1/DTD/svg11.dtd"><svg t="1662107288876" class="icon" viewBox="0 0 1084 1024" version="1.1" xmlns="http://www.w3.org/2000/svg" p-id="1032" xmlns:xlink="http://www.w3.org/1999/xlink" width="211.71875" height="200"><path d="M59.657143 995.542857C26.742857 995.542857 0 968.8 0 935.885714v-22.285714c0-19.885714 9.828571-38.4 26.285714-49.485714V552.571429c-16.457143-11.085714-26.285714-29.6-26.285714-49.485715v-22.285714c0-32.914286 26.742857-59.657143 59.657143-59.657143h174.4c-13.142857-32.571429-20.228571-67.2-20.914286-102.4-1.142857-46.057143 8.342857-92.228571 26.628572-129.942857 24.571429-50.742857 67.542857-92.685714 124.342857-121.371429 49.714286-25.142857 108.8-38.971429 166.4-38.971428 76.8 0 143.657143 23.542857 188 66.285714 45.6 43.771429 58.057143 99.085714 69.028571 147.771429 11.657143 51.428571 21.6 95.885714 64.685714 134.628571 31.657143 28.457143 61.828571 36.571429 84 42.4l5.714286 1.485714h22.285714c32.914286 0 59.657143 26.742857 59.771429 59.657143v22.285715c0 19.885714-9.828571 38.4-26.285714 49.485714V864c16.457143 11.085714 26.285714 29.6 26.285714 49.485714v22.285715c0 32.914286-26.742857 59.657143-59.657143 59.657142H59.657143z" fill="#25467A" p-id="1033"></path><path d="M685.371429 129.257143c76.114286 73.142857 33.714286 192.457143 134.857142 283.428571C885.942857 472 949.028571 462.285714 948.571429 478.857143c-1.6 47.885714-525.257143 172.342857-656.8-49.6-39.885714-67.2-38.742857-157.714286-8.685715-219.657143 68.342857-141.371429 305.257143-173.6 402.285715-80.342857z" fill="#FEF4CF" p-id="1034"></path><path d="M612.457143 534.285714c-69.942857 0-130.628571-8.8-180.342857-26.285714-56.228571-19.657143-96.8-50.057143-120.685715-90.4-17.028571-28.685714-26.4-63.428571-27.314285-100.685714-0.8-34.971429 6.057143-69.6 19.542857-97.371429 17.714286-36.571429 49.714286-67.314286 92.457143-88.914286 40-20.228571 87.771429-31.314286 134.514285-31.314285 57.6 0 108.228571 16.914286 138.971429 46.514285 30.285714 29.028571 38.971429 67.657143 49.028571 112.228572C731.085714 313.257143 745.142857 376 804.914286 429.714286c37.142857 33.485714 73.371429 46.971429 99.428571 54.4-17.142857 7.428571-43.657143 16.571429-81.257143 25.371428-69.142857 16.228571-139.771429 24.457143-210.628571 24.8z" fill="#FCE99C" p-id="1035"></path><path d="M904.228571 484.114286c-17.142857 7.428571-43.657143 16.571429-81.257142 25.371428-69.028571 16.114286-139.657143 24.342857-210.514286 24.685715-69.942857 0-130.628571-8.8-180.342857-26.285715-56.228571-19.657143-96.8-50.057143-120.685715-90.4-5.028571-8.571429-9.485714-17.6-13.028571-26.857143 72.457143 38.4 160.571429 54.971429 266.057143 54.971429 80.228571 0 163.085714-6.742857 226.171428-30.057143 4.457143 4.8 9.257143 9.485714 14.514286 14.057143 36.914286 33.6 73.142857 47.085714 99.085714 54.514286z" fill="#E8C63A" p-id="1036"></path><path d="M998.857143 480.685714v22.285715c0 19.085714-15.428571 34.514286-34.514286 34.514285H59.657143c-19.085714 0-34.514286-15.428571-34.514286-34.514285v-22.285715c0-19.085714 15.428571-34.514286 34.514286-34.514285h904.571428c19.2 0 34.628571 15.428571 34.628572 34.514285z" fill="#25467A" p-id="1037"></path><path d="M74.285714 480.114286h875.314286V934.857143H74.285714z" fill="#0288D1" p-id="1038"></path><path d="M818.4 480.114286h74.285714V934.857143h-74.285714z" fill="#0277BD" p-id="1039"></path><path d="M59.657143 469.028571h904.571428c6.514286 0 11.657143 5.257143 11.657143 11.657143v22.285715c0 6.514286-5.257143 11.657143-11.657143 11.657142H59.657143c-6.514286 0-11.657143-5.257143-11.657143-11.657142v-22.285715c0-6.4 5.257143-11.657143 11.657143-11.657143zM59.657143 901.828571h904.571428c6.514286 0 11.657143 5.257143 11.657143 11.657143v22.285715c0 6.514286-5.257143 11.657143-11.657143 11.657142H59.657143c-6.514286 0-11.657143-5.257143-11.657143-11.657142v-22.285715c0-6.4 5.257143-11.657143 11.657143-11.657143z" fill="#E8C123" p-id="1040"></path><path d="M444.114286 852.8c-7.657143 0-15.428571-0.114286-22.971429-0.457143-31.542857-0.914286-62.971429-4.342857-94.057143-10.285714-4.342857 0-8.914286-0.228571-13.6-0.685714-21.828571-2.057143-62.514286-12.685714-105.257143-35.657143-33.6-18.057143-78.285714-49.257143-100-95.657143-4.8-10.171429-5.257143-24.114286 6.4-34.057143-2.057143-9.714286-4.457143-24.342857 5.485715-37.828571 7.542857-10.171429 21.142857-18.514286 42.742857-26.285715 15.771429-5.714286 35.542857-10.971429 58.857143-15.657143 40.8-8.228571 88.342857-13.828571 118.4-13.828571 3.428571 0 6.628571 0.114286 9.485714 0.228571 2.4 0.114286 4.914286 0.457143 7.314286 0.914286 8.457143-0.342857 16.8-0.457143 24.914285-0.457143 28.685714-8.228571 79.771429-16.685714 128.685715-16.8h0.342857c33.6 0.228571 67.085714 3.542857 100.114286 10.057143 52.685714 10.4 62.057143 20.571429 65.485714 24.457143 2.514286 2.857143 4.571429 6.171429 5.714286 9.714286 38.514286 6.971429 69.028571 14.971429 92.571428 24.114285 32.685714-22.171429 76.571429-35.885714 96-35.885714 2.857143 0 11.428571 0 18.742857 5.942857 6.4 5.142857 15.657143 17.485714 6.742857 41.371429-2.971429 7.885714-7.771429 17.257143-14.628571 28.342857-4.342857 7.085714-8.914286 13.828571-12.914286 19.428571 6.742857 8.342857 15.657143 19.657143 24.342857 31.428572 8.457143 11.2 16.342857 22.857143 23.428572 34.857143 5.142857 9.142857 17.257143 30.4 2.628571 46.285714-9.257143 9.942857-22.971429 9.942857-27.542857 9.942857-26.857143 0-83.085714-16.914286-121.142857-44.342857-71.314286 41.714286-194.971429 80.8-326.285714 80.8z" fill="#25467A" p-id="1041"></path><path d="M364.228571 617.257143c1.6 19.2 294.4 20.571429 296.228572 1.371428 0.914286-10.057143-78.4-29.371429-150.057143-29.371428-68.914286 0.114286-146.971429 18.057143-146.171429 28zM902.285714 791.2c-12.685714 13.714286-150.628571-28.114286-150.742857-84.914286s115.085714-90.4 123.314286-83.657143c12.571429 10.285714-35.2 72.228571-35.2 72.228572s72.114286 85.942857 62.628571 96.342857z" fill="#A9D3F1" p-id="1042"></path><path d="M147.885714 676.571429c-5.371429-51.2 159.542857-74.857143 261.371429-69.942858 226.171429 10.857143 401.028571 38.4 404.571428 90.285715 2.971429 43.657143-185.942857 139.885714-391.885714 132.685714S153.714286 731.771429 147.885714 676.571429z" fill="#E2F6FE" p-id="1043"></path><path d="M810.171429 685.6c-93.828571-14.057143-266.4-22.742857-412.8-25.714286-90.4-1.828571-197.257143 11.657143-248.8 21.6-0.228571-1.714286-0.457143-3.314286-0.685715-4.914285-5.371429-51.2 159.542857-74.857143 261.371429-69.942858 209.142857 10.057143 374.4 34.285714 400.914286 78.971429z" fill="#127FB3" p-id="1044"></path><path d="M392.228571 750.628571c-13.828571 76.114286-42.742857 71.428571-76.457142 68.114286-43.314286-4.228571-152.228571-44.571429-186.857143-118.285714-4.8-10.285714 8.342857-6.628571 9.828571-15.428572s-7.428571-23.428571-0.228571-33.142857c20.685714-27.885714 161.714286-48.8 209.828571-46.4 34.171429 1.828571 57.028571 72.228571 43.885714 145.142857z" fill="#A9D3F1" p-id="1045"></path><path d="M283.2 726.514286c-36.8 0-66.628571-29.828571-66.628571-66.628572s29.828571-66.628571 66.628571-66.628571 66.628571 29.828571 66.628571 66.628571c-0.114286 36.8-29.942857 66.628571-66.628571 66.628572z" fill="#FFFFFF" p-id="1046"></path><path d="M250.057143 659.885714c0 18.285714 14.857143 33.142857 33.142857 33.142857s33.142857-14.857143 33.142857-33.142857-14.857143-33.142857-33.142857-33.142857-33.142857 14.857143-33.142857 33.142857z" fill="#25467A" p-id="1047"></path><path d="M409.257143 765.714286c5.257143-21.714286 154.4-16.342857 160.571428 12.342857 2.514286 12-20.342857 25.828571-30.857142 30.857143-57.028571 26.971429-133.714286-26.4-129.714286-43.2z" fill="#A9D3F1" p-id="1048"></path><path d="M151.885714 734.628571c-9.257143-10.285714-17.028571-21.714286-22.971428-34.171428-4.8-10.285714 8.342857-6.628571 9.828571-15.428572s-7.428571-23.428571-0.228571-33.142857c3.314286-4.457143 9.6-8.685714 18.057143-12.685714 4.342857-1.942857 13.142857 36.685714 12.571428 61.485714-0.685714 26.514286-11.085714 39.314286-17.257143 33.942857z" fill="#FFFFFF" p-id="1049"></path></svg>